<svg viewBox="0 0 135.471 45.961" xmlns="http://www.w3.org/2000/svg">
  <g stroke-miterlimit="2" stroke-width="0">
    <path
      d="M292.06 454.04v-21.804h5.157v8.65l7.866-8.65h6.3l-8.617 9.335 9.041 12.468h-5.973l-6.397-8.878-2.22 2.448v6.43zm23.53-8.19q0-1.926.685-3.493.686-1.566 1.86-2.676 1.209-1.11 2.775-1.697 1.6-.588 3.362-.588 1.991 0 3.59.75 1.6.719 2.677 2.025 1.077 1.273 1.6 3.068.554 1.795.424 3.95h-11.98q.066.848.393 1.5.359.62.848 1.045.522.424 1.175.653.653.196 1.338.196 1.143 0 1.959-.327.848-.326 1.305-.88l3.95 1.435q-1.273 1.86-3.199 2.742-1.893.881-3.884.881-1.959 0-3.59-.587-1.633-.588-2.808-1.697-1.175-1.11-1.827-2.71-.653-1.599-.653-3.59zm4.994-1.6h7.376q-.065-1.566-1.077-2.35-1.011-.815-2.48-.815-1.404 0-2.514.75-1.077.75-1.305 2.416zm17.266 1.6q0-1.926.685-3.493.686-1.566 1.86-2.676 1.209-1.11 2.775-1.697 1.6-.588 3.362-.588 1.991 0 3.59.75 1.6.719 2.677 2.025 1.077 1.273 1.6 3.068.554 1.795.424 3.95h-11.98q.066.848.393 1.5.359.62.848 1.045.522.424 1.175.653.653.196 1.338.196 1.143 0 1.959-.327.848-.326 1.305-.88l3.95 1.435q-1.273 1.86-3.199 2.742-1.893.881-3.884.881-1.959 0-3.59-.587-1.633-.588-2.808-1.697-1.175-1.11-1.827-2.71-.653-1.599-.653-3.59zm4.994-1.6h7.377q-.066-1.566-1.078-2.35-1.011-.815-2.48-.815-1.404 0-2.513.75-1.078.75-1.306 2.416zm18.116-6.4h4.309l.652 2.22q.392-.686.947-1.175.587-.49 1.24-.816.686-.36 1.371-.523.718-.163 1.371-.163 1.567 0 2.872.62 1.306.588 2.252 1.698.98 1.11 1.502 2.709.522 1.566.522 3.525 0 1.99-.522 3.59-.522 1.567-1.502 2.677-.946 1.077-2.252 1.664-1.305.555-2.872.555-.653 0-1.37-.163-.686-.163-1.372-.49-.653-.359-1.24-.848-.555-.523-.947-1.208v7.572h-4.961Zm8.323 12.73q.718 0 1.371-.294t1.142-.881q.49-.588.751-1.436.294-.882.294-2.024 0-1.11-.294-1.99-.26-.882-.75-1.47-.49-.62-1.143-.914-.653-.326-1.37-.326-.719 0-1.372.261-.653.229-1.142.783-.49.555-.783 1.437-.294.88-.294 2.121 0 2.48 1.044 3.623 1.077 1.11 2.546 1.11zm40.757-1.07v4.537h-15.602v-21.804h5.157v17.267zm5.05-3.63q0-2.187.685-3.786.719-1.6 1.894-2.644 1.207-1.044 2.741-1.534 1.567-.522 3.264-.522 1.665 0 3.199.522 1.567.49 2.742 1.534t1.893 2.644q.718 1.6.718 3.786 0 2.187-.718 3.819-.718 1.6-1.893 2.644t-2.742 1.566q-1.534.523-3.199.523-1.697 0-3.264-.523-1.534-.522-2.741-1.566-1.175-1.045-1.894-2.644-.685-1.632-.685-3.819Zm8.584 4.7q1.502 0 2.48-1.077 1.013-1.077 1.013-3.623 0-1.273-.294-2.154-.261-.914-.75-1.436-.458-.555-1.11-.784-.62-.26-1.339-.26-.718 0-1.37.26-.653.229-1.143.784-.457.522-.75 1.436-.262.881-.262 2.154 0 2.546.98 3.623 1.011 1.077 2.545 1.077zm22.156-13.18q1.044 0 2.089.228 1.077.196 2.024.686.979.49 1.795 1.306.849.816 1.403 2.023l-4.145 1.502q-.392-1.045-1.175-1.47-.75-.423-1.697-.423-.686 0-1.338.26-.62.23-1.11.784-.49.522-.784 1.436-.293.881-.293 2.154 0 1.306.293 2.22.327.914.816 1.469.49.522 1.11.783.653.229 1.306.229 1.044 0 1.762-.392.719-.424 1.143-1.143l4.047 1.47q-.62 1.109-1.469 1.86-.848.75-1.827 1.207-.947.457-1.959.653t-1.99.196q-1.992 0-3.559-.62-1.534-.62-2.61-1.73-1.045-1.142-1.6-2.71-.522-1.598-.522-3.524t.587-3.46q.62-1.567 1.697-2.676 1.11-1.11 2.612-1.698 1.534-.62 3.394-.62zm12.28 12.27q0-1.469.783-2.48.816-1.045 2.22-1.698 1.436-.653 3.394-1.012 1.991-.391 4.342-.555v-.62q0-1.403-.719-1.958-.685-.588-1.99-.588-1.045 0-1.796.49-.75.457-1.012 1.436l-4.177-1.501q.816-1.632 2.709-2.71 1.893-1.076 4.7-1.076 1.73 0 3.068.359t2.252 1.175q.914.816 1.371 2.121.49 1.273.49 3.101v3.558q0 .783.032 1.697l.13 1.73q.066.849.164 1.632.098.75.229 1.273h-4.603l-.587-1.958q-.914 1.273-2.285 1.827-1.37.523-3.133.523-1.143 0-2.154-.327-1.012-.326-1.796-.946-.75-.62-1.207-1.502-.425-.881-.425-1.99zm7.41 1.37q.75 0 1.37-.162.62-.196 1.077-.62.457-.425.718-1.143.261-.75.261-1.86v-.392q-1.273.098-2.35.261-1.044.163-1.795.457-.75.261-1.175.685-.391.392-.391 1.045 0 .783.652 1.273.653.457 1.632.457zm20.25-18.8v15.928q0 1.142.457 1.501.457.327 1.697.327h1.404v4.047h-3.166q-1.502 0-2.514-.163-1.011-.196-1.664-.685-.62-.49-.914-1.371-.261-.914-.261-2.35V432.24zm18.39 0h19.16v4.537h-7.018v17.267h-5.124v-17.267h-7.018zm27.13 5.61.881 2.97q.751-1.958 2.057-2.742 1.305-.783 3.166-.685v4.961q-.392-.065-.686-.065-.294-.033-.653-.033-1.827 0-2.774.849-.947.816-.947 2.774v8.16h-4.96v-16.19zm10.51 11.82q0-1.469.783-2.48.816-1.045 2.22-1.698 1.436-.653 3.394-1.012 1.991-.391 4.342-.555v-.62q0-1.403-.719-1.958-.685-.588-1.99-.588-1.045 0-1.796.49-.75.457-1.012 1.436l-4.177-1.501q.816-1.632 2.709-2.71 1.893-1.076 4.7-1.076 1.73 0 3.068.359t2.252 1.175q.914.816 1.371 2.121.49 1.273.49 3.101v3.558q0 .783.032 1.697l.13 1.73q.066.849.164 1.632.098.75.229 1.273h-4.603l-.587-1.958q-.914 1.273-2.285 1.827-1.37.523-3.133.523-1.143 0-2.155-.327-1.011-.326-1.795-.946-.75-.62-1.207-1.502-.425-.881-.425-1.99zm7.41 1.37q.75 0 1.37-.162.62-.196 1.077-.62.457-.425.718-1.143.261-.75.261-1.86v-.392q-1.273.098-2.35.261-1.044.163-1.795.457-.75.261-1.175.685-.391.392-.391 1.045 0 .783.652 1.273.653.457 1.632.457zm13.82-9.4v-3.786h2.676v-2.644q0-1.436.36-2.383.359-.979 1.11-1.534.783-.555 1.958-.783 1.175-.229 2.807-.229h2.252v3.917h-1.371q-.653 0-1.077.065-.424.033-.685.196-.229.163-.327.457-.065.294-.065.751v2.187h3.525v3.786h-3.525v12.403h-4.961V441.64zm15.76 0v-3.786h2.676v-2.644q0-1.436.36-2.383.359-.979 1.11-1.534.783-.555 1.958-.783 1.175-.229 2.807-.229h2.252v3.917h-1.371q-.653 0-1.077.065-.424.033-.685.196-.229.163-.327.457-.065.294-.065.751v2.187h3.525v3.786h-3.525v12.403h-4.961V441.64zm19.02-9.4q0-1.24.849-2.089.848-.849 2.089-.849 1.24 0 2.089.849.848.849.848 2.089 0 1.208-.848 2.089-.849.849-2.09.849-1.24 0-2.088-.849-.849-.881-.849-2.089Zm-2.644 5.614h8.062v16.19h-4.994V441.64h-3.068zm22.334-.454q1.044 0 2.089.228 1.077.196 2.024.686.979.49 1.795 1.306.849.816 1.403 2.023l-4.145 1.502q-.392-1.045-1.175-1.47-.75-.423-1.697-.423-.686 0-1.338.26-.62.23-1.11.784-.49.522-.784 1.436-.293.881-.293 2.154 0 1.306.293 2.22.327.914.816 1.469.49.522 1.11.783.653.229 1.306.229 1.044 0 1.762-.392.719-.424 1.143-1.143l4.047 1.47q-.62 1.109-1.469 1.86-.848.75-1.827 1.207-.947.457-1.959.653t-1.99.196q-1.992 0-3.559-.62-1.534-.62-2.61-1.73-1.045-1.142-1.6-2.71-.522-1.598-.522-3.524t.587-3.46q.62-1.567 1.697-2.676 1.11-1.11 2.612-1.698 1.534-.62 3.394-.62zm39.15 12.11v4.537h-15.602v-21.804h5.157v17.267zm5.05-3.63q0-2.187.685-3.786.719-1.6 1.894-2.644 1.207-1.044 2.741-1.534 1.567-.522 3.264-.522 1.665 0 3.199.522 1.567.49 2.742 1.534t1.893 2.644q.718 1.6.718 3.786 0 2.187-.718 3.819-.718 1.6-1.893 2.644t-2.742 1.566q-1.534.523-3.199.523-1.697 0-3.264-.523-1.534-.522-2.741-1.566-1.175-1.045-1.894-2.644-.685-1.632-.685-3.819Zm8.584 4.7q1.502 0 2.48-1.077 1.013-1.077 1.013-3.623 0-1.273-.294-2.154-.261-.914-.75-1.436-.458-.555-1.11-.784-.62-.26-1.339-.26-.718 0-1.37.26-.653.229-1.143.784-.457.522-.75 1.436-.262.881-.262 2.154 0 2.546.98 3.623 1.011 1.077 2.545 1.077zm22.156-13.18q1.044 0 2.089.228 1.077.196 2.024.686.979.49 1.795 1.306.849.816 1.403 2.023l-4.145 1.502q-.392-1.045-1.175-1.47-.75-.423-1.697-.423-.686 0-1.338.26-.62.23-1.11.784-.49.522-.784 1.436-.293.881-.293 2.154 0 1.306.293 2.22.327.914.816 1.469.49.522 1.11.783.653.229 1.306.229 1.044 0 1.762-.392.719-.424 1.143-1.143l4.047 1.47q-.62 1.109-1.469 1.86-.848.75-1.827 1.207-.947.457-1.959.653t-1.99.196q-1.992 0-3.559-.62-1.534-.62-2.61-1.73-1.045-1.142-1.6-2.71-.522-1.598-.522-3.524t.587-3.46q.62-1.567 1.697-2.676 1.11-1.11 2.612-1.698 1.534-.62 3.394-.62zm12.28 12.27q0-1.469.783-2.48.816-1.045 2.22-1.698 1.436-.653 3.394-1.012 1.991-.391 4.342-.555v-.62q0-1.403-.719-1.958-.685-.588-1.99-.588-1.045 0-1.796.49-.75.457-1.012 1.436l-4.177-1.501q.816-1.632 2.709-2.71 1.893-1.076 4.7-1.076 1.73 0 3.068.359t2.252 1.175q.914.816 1.371 2.121.49 1.273.49 3.101v3.558q0 .783.032 1.697l.13 1.73q.066.849.164 1.632.098.75.229 1.273h-4.603l-.587-1.958q-.914 1.273-2.285 1.827-1.37.523-3.133.523-1.143 0-2.155-.327-1.011-.326-1.795-.946-.75-.62-1.207-1.502-.425-.881-.425-1.99zm7.41 1.37q.75 0 1.37-.162.62-.196 1.077-.62.457-.425.718-1.143.262-.75.262-1.86v-.392q-1.273.098-2.35.261-1.045.163-1.796.457-.75.261-1.175.685-.391.392-.391 1.045 0 .783.652 1.273.653.457 1.632.457zm20.25-18.8v15.928q0 1.142.457 1.501.457.327 1.697.327h1.404v4.047h-3.166q-1.502 0-2.514-.163-1.011-.196-1.664-.685-.62-.49-.914-1.371-.261-.914-.261-2.35V432.24zm-343.41-99.78c-4.752-7.488-11.376-13.392-19.872-17.568-8.64-4.032-18.432-6.192-29.376-6.192h-47.664v22.752h46.512c8.64 0 15.552 2.448 20.736 7.344 5.184 5.04 7.92 11.808 7.92 20.304 0 8.64-2.736 15.408-7.92 20.304-5.184 4.896-12.096 7.344-20.736 7.344h-18v-26.784h-28.512V409.5h47.664c10.944 0 20.736-2.016 29.376-6.192 8.496-4.032 15.12-9.936 19.872-17.568 4.608-7.488 7.056-16.416 7.056-26.64 0-10.08-2.448-19.008-7.056-26.64zm118.96 0c-4.752-7.488-11.376-13.392-19.872-17.568-8.64-4.032-18.432-6.192-29.376-6.192h-47.664v22.752h46.512c8.64 0 15.552 2.448 20.736 7.344 5.184 5.04 7.92 11.808 7.92 20.304 0 8.64-2.736 15.408-7.92 20.304-5.184 4.896-12.096 7.344-20.736 7.344h-18v-26.784h-28.512V409.5h47.664c10.944 0 20.736-2.016 29.376-6.192 8.496-4.032 15.12-9.936 19.872-17.568 4.608-7.488 7.056-16.416 7.056-26.64 0-10.08-2.448-19.008-7.056-26.64zm19.17 25.49v21.024h42.048V357.95Zm59.14-49.25v100.8h28.512V308.7Z"
      fill="#209680"
      style="font-variant-ligatures:none" transform="translate(-89.135 -94.214) scale(.3052)"/>
    <path
      d="m665.99 319.36-7.2-10.656h-32.112l22.32 31.68zm42.192 57.168-16.704 21.6 7.632 11.376h32.832zm21.456-67.824h-30.816l-73.728 100.8h32.544z"
      fill="#cf0"
      style="font-variant-ligatures:none" transform="translate(-89.135 -94.214) scale(.3052)"/>
  </g>
</svg>
